<?xml version="1.0" encoding="utf-8"?>
<svg viewBox="32 2 440 285.75" xmlns="http://www.w3.org/2000/svg">
  <g>
    <rect x="221.75" y="39.25" fill="#E1E1E1" width="60" height="2"/>
    <path fill="#E1E1E1" d="M252,59.25c-4.963,0-9-4.037-9-9s4.037-9,9-9s9,4.037,9,9S256.963,59.25,252,59.25z M252,43.368 c-3.795,0-6.882,3.087-6.882,6.882s3.087,6.882,6.882,6.882s6.882-3.087,6.882-6.882S255.795,43.368,252,43.368z"/>
    <rect x="171.75" y="2" fill="#E1E1E1" width="2" height="190"/>
    <rect x="191.75" y="2" fill="#E1E1E1" width="2" height="190"/>
    <rect x="309.75" y="2" fill="#E1E1E1" width="2" height="190"/>
    <rect x="329.75" y="2" fill="#E1E1E1" width="2" height="190"/>
    <rect x="171.75" y="190" fill="#E1E1E1" width="160" height="2"/>
    <path fill="#E1E1E1" d="M33.75,141.25"/>
    <g>
      <g>
        <path fill="#E1E1E1" d="M294.044,151.311l1.458-1.369c-0.986-1.05-2.009-2.065-3.068-3.042l0,0 c-0.039-0.036-0.078-0.071-0.117-0.107l-0.002-0.002c-0.004-0.004-0.008-0.008-0.013-0.012l-0.001-0.001 c-0.004-0.004-0.009-0.008-0.014-0.013h-0.001c-0.029-0.027-0.058-0.053-0.087-0.08c-0.002-0.001,0,0-0.002-0.001 c-0.004-0.004-0.008-0.008-0.014-0.012v-0.001c-0.009-0.004-0.014-0.008-0.018-0.012l-0.001-0.001 c-0.034-0.031-0.063-0.062-0.104-0.093v-0.001c-0.007-0.004-0.011-0.008-0.016-0.012l-0.002-0.002 c-0.004-0.004-0.009-0.008-0.014-0.012l-0.002-0.001c-0.004-0.004-0.008-0.008-0.015-0.012c0-0.001,0,0-0.003-0.002 c-0.005-0.004-0.01-0.008-0.014-0.012l0,0c-0.022-0.021-0.049-0.043-0.071-0.065c-0.002-0.001-0.002-0.001-0.004-0.002 c-0.004-0.004-0.008-0.007-0.012-0.011c-0.001-0.001-0.003-0.002-0.005-0.003c-0.004-0.003-0.008-0.007-0.012-0.01 c-0.002-0.001-0.004-0.003-0.004-0.004c-0.005-0.003-0.009-0.007-0.013-0.01c0-0.001-0.002-0.002-0.004-0.003 c-0.004-0.003-0.009-0.007-0.013-0.01c0-0.001-0.002-0.002-0.004-0.004c-0.004-0.003-0.009-0.007-0.013-0.01l0,0 c-0.016-0.012-0.026-0.025-0.041-0.037c-0.002-0.001-0.002-0.002-0.005-0.003c-0.004-0.003-0.009-0.006-0.013-0.009 c-0.001-0.001-0.003-0.003-0.005-0.004c-0.002-0.003-0.008-0.006-0.01-0.009c-0.002-0.001-0.006-0.004-0.008-0.005 c-0.005-0.003-0.007-0.005-0.011-0.008c-0.002-0.002-0.002-0.003-0.006-0.005c-0.002-0.003-0.007-0.006-0.011-0.009 c0-0.001-0.006-0.004-0.006-0.006c-0.004-0.002-0.007-0.005-0.011-0.008c0-0.001-0.004-0.005-0.007-0.006 c-0.002-0.003-0.007-0.006-0.009-0.008c-0.005-0.002-0.005-0.003-0.007-0.005c-0.014-0.011-0.022-0.022-0.036-0.033l-0.005-0.003 c-0.002-0.003-0.008-0.006-0.01-0.009c-0.002-0.001-0.004-0.004-0.008-0.006c-0.003-0.002-0.007-0.005-0.011-0.008 c-0.002-0.002-0.004-0.003-0.006-0.006c-0.004-0.002-0.007-0.005-0.011-0.008c-0.002-0.003-0.004-0.003-0.008-0.006 c-0.002-0.003-0.007-0.006-0.009-0.009c-0.004-0.002-0.004-0.003-0.006-0.005c-0.005-0.003-0.007-0.005-0.012-0.008 c0-0.001-0.005-0.005-0.007-0.006c-0.004-0.003-0.008-0.006-0.01-0.008c-0.004-0.002-0.002-0.002-0.006-0.004 c-0.015-0.011-0.023-0.022-0.037-0.034l-0.004-0.002c-0.005-0.003-0.009-0.007-0.013-0.011c-0.002-0.001-0.004-0.002-0.004-0.003 c-0.004-0.003-0.009-0.007-0.013-0.01c0-0.001-0.004-0.003-0.004-0.005c-0.004-0.003-0.009-0.006-0.013-0.008 c-0.002-0.003-0.002-0.003-0.006-0.006c-0.002-0.003-0.007-0.005-0.009-0.008c-0.004-0.003-0.008-0.004-0.01-0.007 c-0.004-0.003-0.006-0.005-0.008-0.007c-0.002-0.001-0.006-0.005-0.008-0.006c-0.005-0.002-0.009-0.005-0.011-0.008 c-0.004-0.003-0.006-0.004-0.008-0.007c-0.007-0.004-0.013-0.009-0.017-0.013c-0.003-0.002-0.007-0.005-0.011-0.007 c-0.002-0.002-0.006-0.005-0.008-0.008c-0.002-0.002-0.004-0.004-0.009-0.006c-0.002-0.002-0.004-0.004-0.01-0.007 c-0.002-0.002-0.004-0.005-0.008-0.007c-0.002-0.002-0.004-0.004-0.006-0.006c-0.005-0.002-0.009-0.006-0.013-0.008 c-0.002-0.002-0.005-0.003-0.007-0.005s-0.006-0.006-0.01-0.009c-0.002-0.002-0.005-0.004-0.007-0.006 c-0.004-0.002-0.006-0.006-0.01-0.008c-0.002-0.002-0.004-0.004-0.008-0.006c-0.002-0.002-0.007-0.006-0.009-0.008 s-0.008-0.004-0.01-0.006c-0.004-0.004-0.008-0.007-0.012-0.011c0-0.001-0.003-0.001-0.003-0.002 c-0.006-0.005-0.012-0.008-0.019-0.013c-0.002-0.002-0.006-0.005-0.008-0.007c-0.005-0.002-0.009-0.005-0.011-0.008 c-0.002-0.002-0.004-0.004-0.008-0.006c-0.002-0.002-0.006-0.006-0.011-0.008c-0.002-0.002-0.004-0.003-0.006-0.005 s-0.01-0.007-0.012-0.009c-0.002-0.001-0.004-0.003-0.006-0.005s-0.007-0.005-0.009-0.008c-0.002-0.002-0.006-0.004-0.009-0.006 c-0.004-0.003-0.008-0.006-0.01-0.008s-0.004-0.004-0.007-0.006c-0.004-0.002-0.008-0.007-0.012-0.009 c-0.002-0.001-0.004-0.003-0.006-0.004c-0.004-0.004-0.009-0.007-0.015-0.011c0-0.001-0.002-0.002-0.002-0.003 c-0.008-0.005-0.014-0.009-0.018-0.014c-0.002-0.001-0.005-0.002-0.005-0.003c-0.004-0.004-0.009-0.007-0.015-0.011 c0-0.001-0.002-0.002-0.006-0.004c-0.005-0.003-0.009-0.007-0.013-0.011c-0.002-0.001-0.002-0.003-0.004-0.004 c-0.004-0.002-0.01-0.007-0.013-0.009c-0.002-0.002-0.004-0.003-0.006-0.005c-0.004-0.002-0.01-0.006-0.014-0.009 c-0.002-0.002-0.004-0.004-0.006-0.006c-0.004-0.003-0.008-0.006-0.011-0.009c-0.002-0.002-0.005-0.003-0.007-0.005 c-0.004-0.004-0.008-0.006-0.012-0.01c0-0.001-0.003-0.003-0.007-0.005c-0.004-0.003-0.01-0.008-0.014-0.011 c0-0.001-0.002-0.002-0.002-0.002c-0.009-0.005-0.013-0.009-0.019-0.014c-0.004-0.001-0.004-0.002-0.006-0.003 c-0.004-0.003-0.01-0.008-0.014-0.012c-0.002-0.001-0.002-0.001-0.004-0.002c-0.006-0.003-0.01-0.008-0.014-0.011 c-0.002-0.001-0.004-0.002-0.004-0.004c-0.005-0.004-0.009-0.007-0.015-0.011c-0.002-0.001-0.004-0.002-0.004-0.003 c-0.004-0.002-0.011-0.008-0.013-0.011c-0.002-0.001-0.004-0.002-0.006-0.003c-0.006-0.005-0.008-0.007-0.016-0.012 c0,0,0-0.001-0.002-0.002c-0.006-0.005-0.012-0.009-0.016-0.014l0,0c-0.021-0.02-0.047-0.039-0.068-0.058c0,0,0,0,0-0.001 c-0.006-0.005-0.012-0.008-0.02-0.014v-0.001c-0.006-0.005-0.01-0.008-0.017-0.013c0,0,0-0.001-0.002-0.002 c-0.004-0.005-0.01-0.008-0.017-0.013l-0.002-0.001c-0.006-0.005-0.012-0.009-0.018-0.014l0,0 c-0.021-0.02-0.045-0.039-0.066-0.058c0,0,0,0-0.002-0.001c-0.006-0.005-0.01-0.009-0.016-0.014l0,0 c-0.008-0.005-0.012-0.009-0.018-0.014l-0.002-0.001c-0.006-0.005-0.014-0.009-0.018-0.014l0,0 c-0.041-0.034-0.08-0.067-0.121-0.102l0,0c-0.859-0.731-1.746-1.439-2.646-2.122l-1.205,1.596 C289.311,146.681,291.787,148.907,294.044,151.311z"/>
        <path fill="#E1E1E1" d="M279.223,137.645c-2.921-1.507-5.979-2.781-9.158-3.798h-0.002c-0.051-0.016-0.101-0.032-0.147-0.048 l-0.002-0.001c-0.011-0.001-0.017-0.003-0.021-0.005c0,0,0,0-0.002,0c-0.007-0.002-0.013-0.004-0.019-0.006h-0.001 c-0.031-0.01-0.062-0.02-0.096-0.03c0,0,0,0-0.002,0c-0.004-0.002-0.014-0.003-0.02-0.005h-0.002l-0.604,1.908 c3.145,0.987,6.223,2.254,9.148,3.766L279.223,137.645z"/>
        <path fill="#E1E1E1" d="M311.604,186.779c-0.236-3.46-0.771-6.842-1.576-10.116l-1.939,0.477 c0.783,3.192,1.295,6.481,1.523,9.777L311.604,186.779z"/>
        <path fill="#E1E1E1" d="M306.743,166.967c-0.001-0.002-0.001-0.002-0.002-0.004c-0.003-0.004-0.005-0.009-0.007-0.014v-0.004 c-0.012-0.022-0.021-0.045-0.03-0.068c-0.001-0.001-0.001-0.002-0.002-0.003c-0.002-0.005-0.005-0.01-0.007-0.015 c0-0.002,0-0.003-0.002-0.005c-0.002-0.004-0.004-0.009-0.006-0.014c0-0.001,0-0.003-0.004-0.005 c-0.002-0.004-0.004-0.009-0.008-0.013c0-0.002-0.001-0.004-0.002-0.006c-0.002-0.004-0.004-0.009-0.006-0.014 c0-0.001,0-0.002-0.001-0.004c-0.002-0.005-0.004-0.01-0.007-0.015l-0.001-0.002c-0.015-0.023-0.021-0.046-0.03-0.069 c-0.001-0.002-0.001-0.002-0.002-0.003c-0.002-0.005-0.004-0.01-0.006-0.015c-0.001-0.001-0.001-0.002-0.002-0.004 c-0.002-0.005-0.006-0.009-0.008-0.014c-0.004-0.002-0.004-0.004-0.004-0.006c-0.002-0.004-0.004-0.009-0.006-0.014 c-0.002-0.001,0-0.001-0.002-0.003c-0.002-0.005-0.005-0.011-0.007-0.016c-0.011-0.024-0.021-0.049-0.032-0.073v-0.001 c-0.002-0.005-0.004-0.011-0.006-0.016c0-0.001,0-0.001-0.002-0.003c-0.002-0.005-0.004-0.01-0.006-0.015 c-0.001-0.002-0.001-0.003-0.002-0.005c-0.002-0.005-0.004-0.01-0.006-0.015c-0.001-0.002-0.001-0.002-0.001-0.004 c-0.002-0.005-0.005-0.01-0.007-0.016l-0.002-0.002c-0.014-0.03-0.025-0.059-0.039-0.088l-0.002-0.002 c-0.002-0.005-0.006-0.01-0.008-0.015c0-0.002-0.002-0.003-0.002-0.005c-0.002-0.004-0.004-0.009-0.008-0.014 c-0.002-0.001-0.002-0.002-0.003-0.004c-0.002-0.005-0.005-0.01-0.007-0.015c-0.001-0.002-0.001-0.001-0.001-0.003 c-0.021-0.035-0.032-0.07-0.048-0.105c-0.001-0.001-0.001-0.001-0.001-0.003c-0.003-0.005-0.009-0.01-0.011-0.015l-0.002-0.004 c-0.002-0.005-0.004-0.01-0.008-0.015c0-0.002,0-0.002-0.002-0.004c-0.002-0.005-0.004-0.01-0.007-0.015 c0-0.001,0-0.001-0.001-0.002c-0.002-0.005-0.005-0.011-0.007-0.016v-0.001c-0.011-0.023-0.021-0.046-0.032-0.069 c0-0.001-0.001-0.003-0.002-0.004c-0.002-0.005-0.004-0.009-0.006-0.014c-0.001-0.001-0.001-0.003-0.002-0.005 c-0.002-0.004-0.004-0.009-0.006-0.014c-0.002-0.001-0.002-0.003-0.002-0.005c-0.003-0.005-0.006-0.009-0.01-0.014 c0-0.002,0-0.002-0.002-0.004c-0.002-0.005-0.004-0.01-0.007-0.015l-0.003-0.003c-0.01-0.023-0.021-0.045-0.029-0.068v-0.003 c-0.002-0.005-0.004-0.009-0.006-0.014c-0.004-0.002-0.004-0.003-0.004-0.005c-0.002-0.004-0.004-0.009-0.007-0.014 c-0.001-0.002-0.001-0.003-0.002-0.005c-0.002-0.005-0.004-0.01-0.006-0.015c-0.001-0.001-0.001-0.002-0.002-0.004 c-0.002-0.004-0.005-0.009-0.009-0.014c0-0.002-0.002-0.004-0.004-0.005c-0.002-0.005-0.004-0.01-0.006-0.015l0,0 c-0.008-0.017-0.015-0.034-0.021-0.05c-0.001-0.002-0.001-0.003-0.002-0.005c-0.002-0.004-0.005-0.008-0.007-0.012 c-0.003-0.002-0.005-0.005-0.005-0.006c-0.003-0.004-0.005-0.009-0.007-0.013c-0.002-0.001-0.002-0.004-0.004-0.006 c-0.002-0.004-0.004-0.008-0.006-0.013c0-0.003,0-0.002-0.002-0.006c-0.002-0.004-0.004-0.009-0.006-0.013 c0-0.002-0.001-0.004-0.002-0.006c-0.002-0.004-0.004-0.009-0.006-0.014c-0.002-0.002-0.002-0.002-0.002-0.003 c-0.012-0.022-0.021-0.045-0.031-0.067l-0.001-0.003c-0.002-0.005-0.004-0.009-0.007-0.013c0-0.002-0.002-0.004-0.002-0.006 c-0.004-0.004-0.006-0.008-0.008-0.013c-0.002-0.003-0.002-0.003-0.004-0.007c0-0.004-0.002-0.008-0.004-0.012 c-0.002-0.003-0.002-0.004-0.005-0.007c-0.003-0.004-0.005-0.008-0.007-0.013c-0.001-0.001-0.002-0.004-0.002-0.005 c-0.002-0.004-0.004-0.009-0.006-0.014c-0.001-0.001-0.001-0.003-0.002-0.004c-0.012-0.017-0.02-0.033-0.021-0.05l0,0 c-0.004-0.005-0.006-0.009-0.008-0.014c-0.002-0.001-0.003-0.004-0.003-0.005c-0.002-0.004-0.004-0.009-0.006-0.013 c0-0.002-0.002-0.005-0.003-0.006c-0.002-0.004-0.004-0.008-0.009-0.012c0-0.003,0-0.004-0.003-0.008 c-0.002-0.004-0.004-0.008-0.006-0.012c-0.002-0.001-0.002-0.005-0.004-0.007c-0.002-0.004-0.004-0.008-0.006-0.012 c0-0.002-0.002-0.005-0.002-0.007c-0.002-0.004-0.004-0.008-0.007-0.012c-0.002-0.003-0.002-0.003-0.003-0.007 c-0.004-0.01-0.012-0.02-0.016-0.029c-0.002-0.002,0,0.001,0-0.001c-0.002-0.004-0.004-0.009-0.006-0.014 c-0.002-0.001-0.002-0.003-0.002-0.005c-0.002-0.004-0.004-0.009-0.008-0.013c-0.002-0.002-0.002-0.005-0.004-0.006 c-0.002-0.004-0.004-0.008-0.006-0.012c-0.002-0.003-0.002-0.005-0.004-0.008c-0.002-0.003-0.004-0.007-0.004-0.011 c-0.002-0.003-0.002-0.005-0.007-0.008c-0.002-0.003-0.002-0.007-0.004-0.011c0-0.002-0.005-0.007-0.007-0.008 c-0.002-0.004-0.002-0.008-0.004-0.011c0-0.002-0.004-0.007-0.004-0.009c-0.002-0.003-0.004-0.006-0.004-0.009 c-0.002-0.005-0.004-0.008-0.008-0.013c-0.002-0.005-0.006-0.011-0.008-0.016c-0.002-0.003-0.004-0.005-0.006-0.009 s-0.002-0.008-0.004-0.011c-0.002-0.002-0.004-0.006-0.004-0.007c-0.002-0.004-0.004-0.007-0.004-0.011 c-0.002-0.003-0.004-0.006-0.004-0.009c-0.003-0.003-0.006-0.006-0.008-0.01s-0.002-0.005-0.004-0.009 c0-0.003-0.002-0.007-0.006-0.01c0-0.003-0.002-0.006-0.004-0.01c0-0.003-0.003-0.007-0.005-0.01 c0-0.002-0.004-0.007-0.007-0.009c0-0.003-0.002-0.006-0.004-0.01c-0.002-0.003-0.004-0.007-0.006-0.01 c-0.002-0.007-0.006-0.014-0.01-0.021c-0.004-0.003,0-0.003-0.004-0.006c-0.002-0.004-0.004-0.007-0.006-0.011 c0-0.002-0.002-0.007-0.004-0.009c-0.002-0.003-0.004-0.007-0.006-0.01c0-0.003-0.002-0.005-0.004-0.008 c-0.002-0.004-0.004-0.008-0.006-0.012c0-0.003-0.002-0.004-0.002-0.008c-0.003-0.003-0.006-0.007-0.008-0.011 c0-0.003-0.002-0.005-0.004-0.009c0-0.003-0.002-0.007-0.004-0.01c-0.002-0.003-0.004-0.007-0.007-0.011 c-0.002-0.002-0.002-0.005-0.004-0.008c-0.003-0.005-0.005-0.007-0.009-0.012c0-0.003-0.002-0.006-0.004-0.008 c-0.002-0.007-0.004-0.012-0.01-0.019c0-0.002-0.002-0.004-0.002-0.007c-0.004-0.005-0.006-0.007-0.008-0.012 c-0.002-0.003-0.004-0.005-0.004-0.008c-0.002-0.005-0.004-0.007-0.008-0.012c0-0.002-0.002-0.005-0.004-0.008 c0-0.003-0.002-0.008-0.004-0.011c-0.002-0.002-0.004-0.006-0.004-0.008c-0.002-0.003-0.004-0.009-0.008-0.012 c-0.002-0.002-0.002-0.004-0.004-0.007c0-0.003-0.004-0.01-0.006-0.013c0-0.002-0.002-0.004-0.002-0.006 c-0.002-0.005-0.007-0.01-0.009-0.015c0-0.001,0-0.003-0.002-0.005c-0.009-0.014-0.015-0.026-0.021-0.04l0,0 c-0.004-0.007-0.006-0.012-0.01-0.019c0-0.001,0-0.002-0.002-0.004c-0.003-0.005-0.005-0.01-0.009-0.016 c0-0.001,0-0.003-0.003-0.005c-0.002-0.003-0.006-0.011-0.008-0.015c0-0.002-0.002-0.004-0.002-0.006 c-0.002-0.003-0.008-0.011-0.01-0.015c0-0.001,0-0.003-0.002-0.004c-0.002-0.007-0.006-0.01-0.01-0.017c0-0.001,0-0.002,0-0.003 c-0.014-0.027-0.021-0.052-0.039-0.08c0-0.001-0.002-0.002-0.002-0.004c-0.002-0.005-0.006-0.011-0.008-0.016 c0-0.001-0.002-0.002-0.002-0.004c-0.002-0.005-0.008-0.01-0.01-0.016c0-0.001-0.002-0.003-0.002-0.004 c-0.004-0.007-0.006-0.01-0.008-0.017c0-0.001-0.002-0.002-0.002-0.003c-0.002-0.007-0.006-0.011-0.011-0.018v-0.001 c-0.011-0.021-0.021-0.04-0.028-0.06c0-0.001,0-0.002-0.002-0.002c-0.002-0.007-0.006-0.011-0.011-0.018c0-0.001,0-0.002,0-0.003 c-0.004-0.007-0.007-0.01-0.009-0.017c0-0.001-0.002-0.002-0.002-0.003c-0.004-0.007-0.004-0.009-0.01-0.016 c0-0.001,0-0.003-0.002-0.004c-0.004-0.007-0.006-0.01-0.01-0.017c0-0.001,0-0.001-0.002-0.002 c-0.014-0.027-0.023-0.053-0.039-0.081l0,0c-0.004-0.007-0.008-0.012-0.012-0.019c0,0,0-0.001-0.002-0.002 c-0.002-0.007-0.006-0.011-0.008-0.018c0-0.001,0-0.001-0.002-0.002c-0.002-0.007-0.006-0.012-0.01-0.018 c0-0.001-0.002-0.001-0.002-0.002c-0.025-0.054-0.054-0.108-0.082-0.162c-0.021-0.041-0.041-0.081-0.062-0.122 c-0.589-1.161-1.216-2.301-1.875-3.417l0,0c-0.009-0.013-0.018-0.025-0.021-0.039l0,0c-0.018-0.026-0.03-0.051-0.047-0.077 c0,0,0,0,0-0.001c-0.004-0.006-0.008-0.011-0.014-0.018c0,0,0-0.001,0-0.002c-0.004-0.006-0.007-0.01-0.011-0.016 c0-0.001-0.002-0.003-0.002-0.004c-0.005-0.006-0.007-0.009-0.011-0.015c0-0.001,0-0.002-0.002-0.003 c-0.004-0.006-0.004-0.01-0.009-0.016c0-0.001-0.002-0.001-0.004-0.002c-0.012-0.02-0.021-0.038-0.032-0.058c0,0,0,0,0-0.001 c-0.005-0.006-0.007-0.01-0.011-0.017c-0.002-0.001-0.002-0.003-0.004-0.005c-0.003-0.005-0.006-0.009-0.01-0.014 c0-0.002-0.002-0.003-0.002-0.005c-0.003-0.003-0.009-0.011-0.011-0.014c0-0.002-0.002-0.004-0.002-0.005 c-0.002-0.003-0.006-0.011-0.008-0.015c-0.002-0.001-0.002-0.002-0.002-0.004c-0.004-0.004-0.008-0.01-0.012-0.015 c0-0.001-0.003-0.003-0.003-0.004c-0.004-0.006-0.009-0.012-0.013-0.018c-0.004-0.007-0.008-0.013-0.013-0.019 c0-0.001,0-0.002-0.002-0.004c-0.002-0.005-0.006-0.01-0.01-0.015c-0.001-0.002-0.003-0.005-0.006-0.007 c-0.003-0.003-0.005-0.007-0.007-0.01s-0.002-0.006-0.004-0.009s-0.004-0.007-0.006-0.01c-0.002-0.003-0.004-0.005-0.006-0.008 s-0.004-0.008-0.006-0.011c-0.002-0.002-0.004-0.005-0.007-0.008c-0.002-0.003-0.004-0.008-0.009-0.011 c0-0.002-0.002-0.005-0.004-0.007c-0.002-0.003-0.004-0.006-0.006-0.009c-0.002-0.003-0.004-0.006-0.007-0.01 c0-0.001,0-0.002-0.002-0.003c-0.006-0.01-0.012-0.02-0.019-0.029c-0.001-0.001,0,0-0.001-0.002 c-0.005-0.004-0.007-0.008-0.009-0.012c-0.002-0.001-0.004-0.004-0.004-0.006c-0.002-0.004-0.006-0.008-0.008-0.012 c0-0.001-0.002-0.003-0.002-0.005c-0.004-0.004-0.006-0.008-0.01-0.012c0-0.002-0.003-0.004-0.003-0.006 c-0.003-0.004-0.006-0.008-0.009-0.011c-0.002-0.002-0.004-0.005-0.004-0.007c-0.002-0.003-0.006-0.008-0.008-0.011 c-0.002-0.002-0.002-0.004-0.004-0.005c-0.003-0.004-0.005-0.009-0.009-0.013v-0.002c-0.015-0.022-0.024-0.043-0.041-0.065 v-0.001c-0.002-0.005-0.006-0.011-0.011-0.016c0-0.002,0,0,0-0.002c-0.004-0.005-0.007-0.01-0.012-0.015l-0.002-0.003 c-0.002-0.005-0.006-0.01-0.01-0.015c0-0.001,0,0,0-0.002c-0.356-0.584-0.728-1.161-1.104-1.732l-1.668,1.103 c1.818,2.753,3.408,5.678,4.729,8.692L306.743,166.967z"/>
        <path fill="#E1E1E1" d="M215.134,146.017l-1.264-1.55c-1.641,1.337-3.209,2.759-4.699,4.26c-0.001,0.001,0,0-0.001,0.001 c-0.004,0.004-0.008,0.008-0.012,0.012c-0.001,0.001-0.001,0.001-0.003,0.002c-0.004,0.004-0.008,0.008-0.012,0.012l-0.002,0.002 c-0.004,0.004-0.008,0.008-0.012,0.012c-0.001,0.001-0.002,0.002-0.003,0.003c-0.004,0.004-0.007,0.008-0.012,0.012l0,0 c-0.022,0.023-0.045,0.045-0.067,0.068c-0.001,0.001-0.002,0.002-0.003,0.003c-0.003,0.004-0.007,0.007-0.011,0.011 c-0.001,0.001-0.003,0.003-0.004,0.004c-0.003,0.003-0.006,0.007-0.009,0.01s-0.003,0.003-0.005,0.005 c-0.003,0.003-0.007,0.007-0.01,0.01c-0.001,0.001-0.003,0.003-0.004,0.004c-0.003,0.003-0.007,0.007-0.01,0.01 c-0.001,0.001-0.003,0.003-0.004,0.004c-0.017,0.017-0.033,0.033-0.049,0.05c-0.001,0.001-0.003,0.003-0.005,0.005 c-0.003,0.003-0.006,0.006-0.009,0.009c-0.001,0.001-0.005,0.005-0.006,0.006c-0.003,0.002-0.005,0.005-0.008,0.008 c-0.003,0.003-0.005,0.005-0.008,0.008s-0.005,0.005-0.007,0.007c-0.002,0.003-0.004,0.005-0.007,0.007 c-0.002,0.003-0.005,0.005-0.008,0.008c-0.002,0.002-0.004,0.004-0.007,0.007c-0.002,0.002-0.005,0.005-0.007,0.008 c-0.001,0.001-0.006,0.006-0.008,0.008s-0.005,0.005-0.007,0.007c-0.003,0.002-0.005,0.005-0.008,0.008 c-0.006,0.006-0.012,0.012-0.018,0.018c-0.001,0.001-0.002,0.002-0.003,0.003c-0.002,0.003-0.005,0.006-0.008,0.009 c-0.002,0.002-0.004,0.004-0.006,0.007c-0.002,0.002-0.004,0.004-0.007,0.007c-0.003,0.003-0.006,0.006-0.009,0.009 c-0.002,0.002-0.004,0.004-0.006,0.006s-0.007,0.007-0.009,0.009s-0.004,0.004-0.006,0.006s-0.007,0.007-0.009,0.01 c-0.002,0.002-0.004,0.004-0.006,0.006c-0.002,0.003-0.007,0.007-0.01,0.01c-0.001,0.001-0.003,0.003-0.005,0.005 c-0.004,0.004-0.008,0.008-0.012,0.012c-0.001,0.001-0.002,0.002-0.003,0.003c-0.011,0.011-0.02,0.021-0.031,0.032 c0,0,0,0-0.001,0.001c-0.005,0.005-0.009,0.01-0.015,0.015c0,0,0,0-0.001,0.001c-0.005,0.005-0.009,0.009-0.014,0.014 c-0.001,0.001-0.002,0.002-0.003,0.002c-0.005,0.006-0.007,0.008-0.013,0.013c-0.001,0.001-0.002,0.002-0.003,0.003 c-0.005,0.005-0.007,0.007-0.012,0.012c-0.001,0.001-0.002,0.002-0.003,0.003c-0.005,0.005-0.008,0.008-0.014,0.014 c0,0,0,0.001-0.001,0.001c-0.026,0.027-0.052,0.053-0.078,0.081l0,0c-0.005,0.005-0.01,0.01-0.015,0.016l0,0 c-0.005,0.005-0.01,0.01-0.015,0.015l-0.001,0.001c-0.682,0.709-1.346,1.434-1.993,2.176l1.508,1.314 C210.186,150.415,212.579,148.099,215.134,146.017z"/>
        <path fill="#E1E1E1" d="M202.171,160.884l-1.708-1.04c-1.768,2.903-3.295,5.968-4.556,9.168l1.861,0.733 C198.974,166.684,200.456,163.702,202.171,160.884z"/>
        <path fill="#E1E1E1" d="M194.945,179.228l-1.958-0.403c-0.145,0.699-0.276,1.4-0.396,2.108c0,0,0,0,0,0.001 c-0.007,0.039-0.013,0.076-0.02,0.114c0,0.001,0,0.002,0,0.003c-0.001,0.008-0.001,0.011-0.003,0.019 c0,0.001,0,0.003-0.001,0.004c-0.001,0.008-0.001,0.011-0.003,0.018c0,0.001,0,0.003,0,0.004 c-0.001,0.008-0.002,0.013-0.003,0.021v0.001c-0.001,0.008-0.002,0.015-0.003,0.022c0,0.001,0,0.002-0.001,0.004 c-0.001,0.005-0.002,0.012-0.003,0.018c0,0.002,0,0.004-0.001,0.006c0,0.004-0.002,0.012-0.002,0.016 c0,0.002-0.001,0.005-0.001,0.007c-0.001,0.004-0.002,0.01-0.002,0.014c0,0.003-0.001,0.005-0.001,0.008 c0,0.004-0.002,0.011-0.002,0.015c0,0.002-0.001,0.005-0.001,0.007c-0.001,0.008-0.002,0.014-0.003,0.021 c0,0.001,0,0.002-0.001,0.004c-0.001,0.006-0.002,0.012-0.003,0.018c0,0.002,0,0.004-0.001,0.007c0,0.004-0.001,0.01-0.002,0.014 c0,0.003-0.001,0.006-0.001,0.009c0,0.004-0.001,0.01-0.002,0.014c0,0.003-0.001,0.005-0.001,0.008 c0,0.004-0.001,0.009-0.002,0.013c0,0.003-0.001,0.006-0.001,0.01c-0.001,0.003-0.001,0.007-0.002,0.011 c-0.001,0.007-0.002,0.014-0.003,0.021c0,0.004-0.001,0.006-0.001,0.01s-0.001,0.008-0.002,0.013 c0,0.002-0.001,0.006-0.001,0.008c0,0.004-0.001,0.009-0.002,0.013c0,0.004-0.001,0.004-0.001,0.008 c0,0.005-0.001,0.009-0.002,0.013c0,0.004-0.001,0.004-0.001,0.008s-0.001,0.008-0.002,0.013c0,0.002-0.001,0.005-0.001,0.007 c-0.003,0.018-0.006,0.035-0.009,0.053v0.001c-0.001,0.005-0.001,0.01-0.002,0.016c0,0.002,0,0.004-0.001,0.006 c-0.001,0.005-0.001,0.01-0.002,0.016v0.004c-0.001,0.005-0.002,0.011-0.003,0.017c0,0.002,0,0.001,0,0.003 c-0.005,0.032-0.01,0.063-0.015,0.095v0.001c-0.001,0.006-0.001,0.013-0.002,0.019c0,0.002,0,0,0,0.002 c-0.255,1.643-0.444,3.309-0.562,4.994c0,0.007-0.001,0.014-0.001,0.02l0,0c-0.002,0.026-0.003,0.053-0.005,0.08v0.001 c0,0.006-0.001,0.012-0.001,0.019v0.003c0,0.006-0.001,0.011-0.001,0.018c0,0.002,0,0.001,0,0.003 c-0.002,0.026-0.003,0.051-0.005,0.077v0.002c0,0.006-0.001,0.012-0.001,0.017c0,0.002,0,0.002,0,0.004 c0,0.005-0.001,0.011-0.001,0.016c0,0.002,0,0.004,0,0.006c0,0.005-0.001,0.01-0.001,0.015c0,0.002,0,0.004,0,0.006 c0,0.005,0,0.011-0.001,0.016c0,0.002,0-0.001,0,0c-0.001,0.011-0.001,0.022-0.002,0.033c0,0.002,0,0.006,0,0.008 c0,0.004,0,0.009,0,0.013c0,0.002,0,0.007-0.001,0.009c0,0.004,0,0.008,0,0.012s0,0.006,0,0.01c0,0.004-0.001,0.008-0.001,0.013 c0,0.002,0,0.007,0,0.009c0,0.004,0,0.009-0.001,0.013c0,0.002,0,0.006,0,0.008c0,0.008-0.001,0.017-0.001,0.025 c0,0.004,0,0.005-0.001,0.009c0,0.004,0,0.007,0,0.011s0,0.008,0,0.012c0,0.003,0,0.007-0.001,0.01c0,0.004,0,0.008,0,0.012 c0,0.003,0,0.007-0.001,0.01c0,0.004,0,0.008,0,0.012c0,0.003,0,0.006,0,0.01s-0.001,0.011-0.001,0.015c0,0.002,0,0.005,0,0.007 c0,0.008-0.001,0.014-0.001,0.022c0,0.001,0,0.002,0,0.003c0,0.008-0.001,0.011-0.001,0.019c0,0.002,0,0.005,0,0.007 c0,0.004,0,0.011,0,0.015c0,0.002,0,0.005,0,0.008c0,0.004-0.001,0.012-0.001,0.016c0,0.002,0,0.004,0,0.006 c0,0.006-0.001,0.013-0.001,0.019c0,0.001,0,0.003,0,0.004c-0.001,0.016-0.002,0.031-0.002,0.046c0,0,0,0.001,0,0.002 c0,0.008,0,0.013-0.001,0.021c0,0.001,0,0.002,0,0.003c0,0.008,0,0.012-0.001,0.02c0,0.001,0,0.002,0,0.004 c0,0.008-0.001,0.012-0.001,0.02c0,0.001,0,0.002,0,0.003c-0.001,0.024-0.003,0.046-0.004,0.07v0.001 c0,0.008-0.001,0.014-0.001,0.022v0.001c0,0.008-0.001,0.014-0.001,0.022c0,0,0,0,0,0.001c-0.025,0.455-0.045,0.909-0.06,1.366 l1.999,0.065C193.891,185.751,194.282,182.444,194.945,179.228z"/>
        <path fill="#E1E1E1" d="M251.75,133c2.591,0,5.198,0.172,7.748,0.513l0.266-1.982h-0.005c-0.008-0.001-0.016-0.002-0.022-0.003 c-0.004,0-0.002,0-0.006-0.001c-0.008-0.001-0.018-0.002-0.021-0.003h-0.004c-0.015-0.001-0.021-0.002-0.03-0.004 c-0.002,0,0.001,0,0,0c-0.009-0.001-0.021-0.002-0.023-0.003c-0.002,0-0.004-0.001-0.006-0.001 c-0.012-0.001-0.02-0.002-0.023-0.003h-0.004c-0.021-0.002-0.039-0.005-0.062-0.007c-0.002,0-0.002,0-0.004-0.001 c-0.008-0.001-0.02-0.002-0.021-0.003c-0.003,0-0.003,0-0.005,0c-0.021-0.003-0.039-0.005-0.062-0.008c-0.002,0-0.001,0-0.003,0 c-0.01-0.001-0.021-0.002-0.023-0.003c-0.006,0,0,0-0.006,0c-0.027-0.003-0.061-0.007-0.09-0.011h-0.003 c-0.026-0.003-0.062-0.007-0.09-0.011h-0.002c-0.03-0.004-0.062-0.008-0.095-0.011h-0.002c-1.52-0.187-3.057-0.316-4.604-0.388 h-0.001c-0.031-0.001-0.062-0.003-0.097-0.004l0,0c-0.028-0.001-0.062-0.002-0.095-0.004h-0.002c-0.01,0-0.02-0.001-0.028-0.001 l0,0c-0.021,0-0.043-0.001-0.062-0.002c-0.002,0,0,0-0.001,0c-0.01,0-0.021-0.001-0.029-0.001l0,0 c-0.021,0-0.041-0.001-0.062-0.002h-0.002c-0.011,0-0.021,0-0.028-0.001c-0.003,0,0,0-0.003,0 c-0.028-0.001-0.062-0.002-0.092-0.004h-0.003c-0.03-0.001-0.062-0.002-0.092-0.003h-0.004c-0.01,0-0.021,0-0.027-0.001h-0.001 c-0.021-0.001-0.041-0.001-0.062-0.002c-0.002,0-0.004,0-0.006,0c-0.012,0-0.021,0-0.025-0.001c-0.002,0-0.002,0-0.004,0 c-0.021,0-0.041-0.001-0.062-0.002c-0.002,0-0.003,0-0.005,0c-0.008,0-0.019,0-0.022-0.001c-0.002,0-0.004,0-0.006,0 c-0.021-0.001-0.039-0.001-0.062-0.002c-0.002,0-0.002,0-0.004,0c-0.011,0-0.021,0-0.026,0c-0.002,0-0.003,0-0.005,0 c-0.021-0.001-0.04-0.001-0.062-0.002h-0.004c-0.012,0-0.021,0-0.024-0.001c-0.002,0-0.004,0-0.009,0 c-0.008,0-0.02,0-0.026-0.001c-0.011,0-0.021,0-0.028-0.001h-0.002c-0.012,0-0.021,0-0.027-0.001c-0.002,0-0.004,0-0.006,0 c-0.01,0-0.02,0-0.023,0h-0.003c-0.021-0.001-0.04-0.001-0.062-0.002c-0.002,0-0.007,0-0.009,0c-0.009,0-0.017,0-0.022,0 c-0.002,0-0.002,0-0.004,0c-0.021,0-0.041-0.001-0.062-0.001c-0.002,0-0.003,0-0.006,0c-0.01,0-0.019,0-0.021,0s-0.008,0-0.01,0 c-0.021,0-0.039-0.001-0.059-0.001c-0.006,0-0.006,0-0.01,0c-0.008,0-0.017,0-0.021,0c-0.002,0-0.004,0-0.006,0 c-0.013,0-0.021,0-0.024,0c-0.005,0-0.004,0-0.006,0c-0.01,0-0.021,0-0.025-0.001c-0.002,0-0.004,0-0.006,0 c-0.012,0-0.02,0-0.022,0s-0.004,0-0.009,0c-0.008,0-0.02,0-0.023,0c-0.002,0-0.003,0-0.005,0c-0.01,0-0.021,0-0.028-0.001 c-0.002,0-0.004,0-0.006,0c-0.008,0-0.017,0-0.023,0c-0.004,0-0.002,0-0.006,0c-0.01,0-0.018,0-0.021,0c-0.002,0-0.004,0-0.007,0 c-0.012,0-0.021,0-0.028,0c-0.002,0-0.002,0-0.004,0c-0.008,0-0.021,0-0.021,0c-0.002,0-0.01,0-0.012,0c-0.008,0-0.015,0-0.021,0 c-0.003,0-0.008,0-0.01,0c-0.01,0-0.021,0-0.025,0h-0.002c-0.012,0-0.021,0-0.025,0c-0.003,0-0.008,0-0.01,0 c-0.008,0-0.015,0-0.021,0c-0.002,0-0.006,0-0.008,0c-0.01,0-0.019,0-0.026,0h-0.002c-0.011,0-0.021,0-0.027,0 c-0.002,0-0.008,0-0.01,0c-0.006,0-0.015,0-0.021,0c-0.002,0-0.007,0-0.009,0c-0.008,0-0.021,0-0.022,0s-0.002,0-0.004,0 c-0.012,0-0.021,0-0.027,0c-0.002,0-0.006,0-0.008,0c-0.008,0-0.018,0-0.021,0s-0.006,0-0.01,0c-0.01,0-0.018,0-0.021,0 c-0.002,0-0.004,0-0.006,0c-0.01,0-0.02,0-0.029,0c-0.002,0-0.003,0-0.005,0c-0.008,0-0.016,0-0.024,0c-0.004,0-0.004,0-0.008,0 c-0.007,0-0.015,0-0.022,0c-0.002,0-0.005,0-0.007,0c-0.01,0-0.02,0-0.029,0c-0.002,0-0.002,0-0.004,0c-0.008,0-0.017,0-0.025,0 c-0.002,0-0.007,0-0.009,0c-0.007,0-0.014,0-0.021,0c-0.002,0-0.006,0-0.008,0c-0.009,0-0.018,0-0.027,0 c-0.002,0-0.002,0-0.004,0c-0.009,0-0.018,0-0.026,0c-0.002,0-0.007,0-0.009,0c-0.006,0-0.013,0-0.02,0c-0.002,0-0.007,0-0.01,0 c-0.009,0-0.017,0-0.026,0c-0.002,0,0,0-0.002,0c-0.01,0-0.021,0-0.029,0c-0.002,0-0.006,0-0.008,0c-0.007,0-0.015,0-0.021,0 c-0.004,0-0.005,0-0.009,0c-0.008,0-0.015,0-0.023,0c-0.002,0-0.004,0-0.006,0c-0.01,0-0.019,0-0.028,0c-0.004,0-0.004,0-0.008,0 c-0.007,0-0.014,0-0.021,0c-0.004,0-0.006,0-0.01,0c-0.007,0-0.014,0-0.021,0c-0.004,0-0.004,0-0.008,0c-0.009,0-0.019,0-0.028,0 c-0.002,0-0.004,0-0.006,0c-0.007,0-0.015,0-0.022,0c-0.004,0-0.005,0-0.009,0c-0.007,0-0.014,0-0.021,0 c-0.002,0-0.006,0-0.008,0c-0.009,0-0.019,0-0.029,0c-0.002,0,0,0-0.002,0c-0.009,0-0.017,0-0.026,0c-0.002,0-0.007,0-0.009,0 c-0.007,0-0.014,0-0.021,0c-0.002,0-0.006,0-0.008,0c-0.009,0-0.019,0-0.029,0c-0.008,0-0.015,0-0.022,0 c-0.002,0-0.005,0-0.007,0c-0.004,0-0.011,0-0.015,0c-0.003,0-0.006,0-0.009,0c-0.004,0-0.009,0-0.013,0c-0.003,0-0.006,0-0.01,0 s-0.009,0-0.013,0c-0.003,0-0.006,0-0.009,0c-0.006,0-0.01,0-0.017,0c-0.002,0-0.003,0-0.006,0c-0.008,0-0.014,0-0.022,0 c-0.002,0-0.005,0-0.007,0c-0.006,0-0.01,0-0.016,0c-0.003,0-0.005,0-0.008,0c-0.004,0-0.01,0-0.015,0c-0.003,0-0.006,0-0.009,0 c-0.004,0-0.01,0-0.014,0c-0.003,0-0.006,0-0.009,0c-0.006,0-0.01,0-0.016,0c-0.002,0-0.004,0-0.006,0c-0.008,0-0.014,0-0.022,0 c-0.002,0-0.004,0-0.006,0c-0.006,0-0.011,0-0.017,0c-0.002,0-0.005,0-0.008,0c-0.004,0-0.011,0-0.015,0 c-0.002,0-0.005,0-0.008,0c-0.004,0-0.011,0-0.015,0c-0.002,0-0.005,0-0.008,0c-0.006,0-0.01,0-0.016,0c-0.002,0-0.004,0-0.006,0 c-0.008,0-0.014,0-0.022,0c-0.002,0-0.004,0-0.006,0c-0.006,0-0.011,0-0.017,0c-0.002,0-0.005,0-0.008,0 c-0.004,0-0.011,0-0.015,0c-0.003,0-0.006,0-0.008,0c-0.004,0-0.011,0-0.015,0c-0.003,0-0.005,0-0.008,0c-0.006,0-0.01,0-0.016,0 c-0.002,0-0.004,0-0.006,0c-0.016,0-0.029,0-0.045,0c-0.002,0-0.004,0-0.007,0c-0.004,0-0.012,0-0.016,0 c-0.003,0-0.005,0-0.008,0c-0.004,0-0.011,0-0.015,0c-0.003,0-0.005,0-0.008,0c-0.004,0-0.012,0-0.016,0 c-0.002,0-0.004,0-0.007,0c-0.008,0-0.012,0-0.021,0c0,0-0.001,0-0.002,0c-0.008,0-0.015,0-0.023,0c-0.002,0-0.003,0-0.005,0 c-0.006,0-0.011,0-0.018,0c-0.002,0-0.005,0-0.008,0c-0.004,0-0.011,0-0.015,0c-0.002,0-0.005,0-0.008,0 c-0.004,0-0.011,0-0.016,0c-0.002,0-0.004,0-0.007,0c-0.006,0-0.013,0-0.019,0c-0.001,0-0.003,0-0.004,0 c-0.008,0-0.014,0-0.022,0c-0.002,0-0.005,0-0.007,0c-0.006,0-0.01,0-0.016,0c-0.002,0-0.005,0-0.008,0c-0.004,0-0.011,0-0.015,0 c-0.003,0-0.005,0-0.008,0c-0.004,0-0.01,0-0.015,0c-0.002,0-0.005,0-0.008,0c-0.006,0-0.009,0-0.015,0c-0.002,0-0.005,0-0.007,0 c-0.008,0-0.015,0-0.022,0c-0.001,0-0.002,0-0.003,0c-0.008,0-0.011,0-0.019,0c-0.003,0-0.005,0-0.008,0 c-0.004,0-0.011,0-0.015,0c-0.003,0-0.005,0-0.008,0c-0.004,0-0.011,0-0.015,0c-0.002,0-0.005,0-0.008,0c-0.006,0-0.01,0-0.016,0 c-0.002,0-0.004,0-0.006,0c-0.008,0-0.015,0-0.022,0c0,0,0,0-0.001,0c-0.008,0-0.014,0-0.022,0c-0.002,0-0.004,0-0.006,0 c-0.006,0-0.011,0-0.017,0c-0.003,0-0.005,0-0.007,0c-0.004,0-0.012,0-0.016,0c-0.002,0-0.005,0-0.007,0 c-0.006,0-0.011,0-0.017,0c-0.002,0-0.004,0-0.006,0c-0.016,0-0.029,0-0.045,0.001c-0.002,0-0.005,0-0.007,0 c-0.006,0-0.01,0-0.016,0c-0.002,0-0.005,0-0.008,0c-0.004,0-0.011,0-0.015,0c-0.003,0-0.005,0-0.008,0c-0.004,0-0.013,0-0.017,0 c-0.002,0-0.004,0-0.006,0c-0.008,0-0.012,0-0.02,0c-0.001,0-0.001,0-0.002,0c-0.008,0-0.015,0-0.023,0c-0.001,0-0.002,0-0.003,0 c-0.008,0-0.012,0-0.02,0c-0.002,0-0.004,0-0.006,0c-0.004,0-0.013,0-0.017,0c-0.002,0-0.005,0-0.007,0c-0.004,0-0.011,0-0.015,0 c-0.003,0-0.006,0-0.009,0c-0.004,0-0.012,0-0.016,0c-0.002,0-0.003,0-0.005,0c-0.008,0-0.014,0-0.022,0 c-0.002,0-0.004,0-0.007,0c-0.006,0-0.01,0-0.016,0c-0.003,0-0.006,0-0.008,0c-0.004,0-0.01,0-0.014,0c-0.003,0-0.006,0-0.009,0 c-0.004,0-0.011,0-0.015,0c-0.002,0-0.005,0-0.008,0c-0.004,0-0.01,0-0.014,0c-0.003,0-0.006,0-0.008,0c-0.008,0-0.014,0-0.022,0 c-0.002,0-0.004,0-0.006,0c-0.006,0-0.01,0-0.016,0c-0.003,0-0.006,0-0.01,0s-0.009,0-0.013,0c-0.003,0-0.006,0-0.009,0 c-0.004,0-0.01,0-0.014,0c-0.003,0-0.006,0-0.009,0c-0.004,0-0.011,0-0.015,0c-0.002,0-0.004,0-0.007,0c-0.008,0-0.012,0-0.02,0 c-0.002,0-0.003,0-0.005,0c-0.008,0-0.012,0-0.02,0.001c-0.002,0-0.005,0-0.007,0c-0.004,0-0.011,0-0.015,0 c-0.003,0-0.006,0-0.009,0c-0.004,0-0.01,0-0.014,0c-0.003,0-0.006,0-0.009,0c-0.004,0-0.009,0-0.013,0c-0.003,0-0.006,0-0.009,0 c-0.006,0-0.011,0-0.018,0c-0.001,0-0.003,0-0.004,0c-0.008,0-0.015,0-0.022,0.001c-0.002,0-0.004,0-0.005,0 c-0.006,0-0.011,0-0.018,0c-0.002,0-0.004,0-0.007,0c-0.004,0-0.011,0-0.016,0c-0.002,0-0.005,0-0.008,0 c-0.004,0-0.011,0-0.016,0c-0.002,0-0.004,0-0.007,0c-0.006,0-0.011,0-0.017,0c-0.002,0-0.004,0-0.006,0 c-0.008,0-0.014,0-0.022,0c-0.002,0-0.004,0-0.006,0c-0.006,0-0.01,0-0.017,0c-0.002,0-0.005,0-0.008,0c-0.004,0-0.011,0-0.015,0 c-0.003,0-0.005,0-0.008,0c-0.004,0-0.011,0-0.015,0c-0.003,0-0.005,0-0.008,0c-0.006,0-0.011,0-0.017,0 c-0.001,0-0.003,0-0.005,0c-0.008,0-0.015,0-0.023,0.001c-0.001,0-0.002,0-0.002,0c-0.008,0-0.012,0-0.02,0.001 c-0.002,0-0.004,0-0.006,0c-0.004,0-0.012,0-0.016,0c-0.003,0-0.005,0-0.008,0c-0.004,0-0.011,0-0.015,0 c-0.002,0-0.005,0-0.007,0c-0.006,0-0.01,0-0.016,0c-0.002,0-0.005,0-0.008,0c-0.016,0-0.028,0.001-0.044,0.001 c-0.003,0-0.005,0-0.008,0c-0.004,0-0.011,0-0.015,0c-0.003,0-0.005,0-0.008,0c-0.004,0-0.01,0-0.014,0c-0.003,0-0.005,0-0.008,0 c-0.004,0-0.012,0-0.016,0c-0.002,0-0.004,0-0.006,0c-0.008,0-0.014,0-0.021,0c0,0,0,0-0.001,0c-0.008,0-0.015,0.001-0.022,0.001 c-0.002,0-0.004,0-0.006,0c-0.004,0-0.012,0-0.016,0c-0.003,0-0.006,0-0.009,0c-0.004,0-0.01,0-0.014,0c-0.003,0-0.005,0-0.008,0 c-0.004,0-0.012,0-0.016,0.001c-0.002,0-0.004,0-0.007,0c-0.008,0-0.012,0-0.021,0.001c-0.001,0-0.001,0-0.002,0 c-0.008,0-0.015,0-0.022,0.001c-0.002,0-0.003,0-0.005,0c-0.006,0-0.012,0-0.018,0.001c-0.002,0-0.004,0-0.006,0 c-0.004,0-0.012,0-0.016,0c-0.003,0-0.005,0-0.008,0c-0.004,0-0.011,0-0.015,0c-0.002,0-0.005,0-0.007,0 c-0.006,0-0.011,0-0.018,0c-0.001,0-0.003,0-0.005,0c-0.008,0-0.015,0-0.023,0.001c0,0,0,0-0.001,0c-0.008,0-0.013,0-0.021,0.001 c-0.001,0-0.004,0-0.005,0c-0.006,0-0.012,0-0.018,0.001c-0.002,0-0.004,0-0.006,0c-0.004,0-0.013,0-0.017,0.001 c-0.002,0-0.004,0-0.006,0c-0.006,0-0.012,0-0.018,0.001c-0.001,0-0.003,0-0.004,0c-0.016,0.001-0.029,0.001-0.045,0.002 c-0.002,0-0.004,0-0.007,0c-0.004,0-0.01,0-0.014,0c-0.003,0-0.006,0-0.01,0s-0.009,0-0.013,0c-0.003,0-0.006,0-0.009,0 c-0.004,0-0.011,0-0.015,0c-0.002,0-0.004,0-0.007,0c-0.008,0-0.013,0-0.021,0.001h-0.001c-0.008,0-0.015,0.001-0.022,0.001 c-0.002,0-0.004,0-0.006,0c-0.006,0-0.011,0-0.017,0c-0.002,0-0.004,0-0.006,0c-0.004,0-0.012,0-0.016,0.001 c-0.003,0-0.005,0-0.007,0c-0.004,0-0.012,0-0.016,0.001c-0.002,0-0.004,0-0.006,0c-0.006,0-0.013,0.001-0.019,0.001 c-0.001,0-0.002,0-0.004,0c-0.008,0-0.015,0-0.023,0.001c-0.001,0-0.001,0-0.002,0c-0.008,0-0.012,0-0.02,0.001 c-0.002,0-0.004,0-0.006,0c-0.004,0-0.013,0-0.017,0c-0.002,0-0.004,0-0.007,0c-0.004,0-0.012,0-0.016,0.001 c-0.002,0-0.005,0-0.007,0c-0.006,0-0.011,0-0.017,0.001c-0.002,0-0.004,0-0.005,0c-0.008,0-0.014,0-0.022,0.001 c-0.001,0-0.003,0-0.004,0c-0.006,0-0.012,0.001-0.018,0.001c-0.002,0-0.004,0-0.007,0c-0.004,0-0.011,0-0.015,0 c-0.003,0-0.006,0-0.009,0c-0.004,0-0.009,0-0.013,0.001c-0.003,0-0.006,0-0.01,0s-0.01,0-0.014,0c-0.003,0-0.005,0-0.008,0 c-0.008,0-0.014,0.001-0.022,0.001h-0.001c-0.008,0-0.012,0-0.021,0.001c-0.003,0-0.005,0-0.008,0c-0.004,0-0.01,0-0.015,0 c-0.002,0-0.005,0-0.008,0c-0.004,0-0.011,0-0.015,0.001c-0.002,0-0.004,0-0.007,0c-0.006,0-0.012,0.001-0.018,0.001 c-0.002,0-0.003,0-0.005,0c-0.008,0-0.012,0-0.021,0.001c0,0-0.001,0-0.002,0c-0.008,0-0.014,0.001-0.022,0.001 c-0.002,0-0.004,0-0.007,0c-0.004,0-0.011,0-0.015,0c-0.003,0-0.006,0-0.009,0c-0.004,0-0.01,0-0.014,0.001 c-0.002,0-0.005,0-0.008,0c-0.004,0-0.011,0-0.015,0.001c-0.002,0-0.005,0-0.008,0c-0.008,0-0.011,0.001-0.02,0.001 c0,0-0.001,0-0.002,0c-0.008,0-0.014,0.001-0.021,0.001c-0.002,0-0.005,0-0.008,0c-0.004,0-0.01,0.001-0.014,0.001 c-0.003,0-0.006,0-0.009,0c-0.004,0-0.009,0-0.013,0.001c-0.003,0-0.006,0-0.009,0c-0.004,0-0.01,0-0.014,0 c-0.003,0-0.006,0-0.009,0c-0.006,0-0.011,0.001-0.017,0.001c-0.001,0-0.003,0-0.005,0c-0.008,0-0.015,0.001-0.022,0.001 c-0.001,0-0.002,0-0.003,0c-0.008,0-0.011,0-0.019,0.001c-0.002,0-0.004,0-0.006,0c-0.004,0-0.012,0.001-0.016,0.001 c-0.002,0-0.005,0-0.007,0c-0.004,0-0.012,0-0.016,0.001c-0.002,0-0.004,0-0.007,0c-0.006,0-0.012,0-0.018,0.001 c-0.002,0-0.003,0-0.005,0c-0.008,0-0.014,0.001-0.022,0.001c-0.001,0-0.003,0-0.004,0c-0.006,0-0.012,0-0.018,0.001 c-0.002,0-0.004,0-0.006,0c-0.004,0-0.013,0-0.017,0.001c-0.002,0-0.004,0-0.007,0c-0.004,0-0.012,0-0.016,0.001 c-0.002,0-0.004,0-0.007,0c-0.006,0-0.01,0.001-0.016,0.001c-0.002,0-0.004,0-0.006,0c-0.008,0-0.014,0.001-0.022,0.001l0,0 c-0.008,0-0.014,0.001-0.022,0.001c-0.002,0-0.004,0-0.006,0c-0.004,0-0.012,0-0.016,0.001c-0.002,0-0.005,0-0.008,0 c-0.004,0-0.011,0-0.015,0.001c-0.002,0-0.005,0-0.008,0c-0.004,0-0.012,0-0.016,0.001c-0.002,0-0.003,0-0.005,0 c-0.016,0.001-0.03,0.002-0.046,0.003c-0.001,0-0.002,0-0.003,0c-0.008,0-0.011,0-0.019,0.001c-0.002,0-0.004,0-0.007,0 c-0.004,0-0.012,0.001-0.016,0.001c-0.002,0-0.004,0-0.007,0c-0.004,0-0.012,0-0.016,0.001c-0.002,0-0.004,0-0.006,0 c-0.006,0-0.012,0-0.018,0.001c-0.001,0-0.003,0-0.004,0c-0.008,0-0.015,0.001-0.023,0.001c-0.001,0-0.002,0-0.003,0 c-0.008,0-0.011,0.001-0.019,0.001c-0.002,0-0.004,0-0.007,0c-0.004,0-0.011,0-0.016,0.001c-0.002,0-0.005,0-0.008,0 c-0.004,0-0.011,0-0.015,0.001c-0.002,0-0.004,0-0.007,0c-0.006,0-0.012,0.001-0.018,0.001c-0.001,0-0.003,0-0.005,0 c-0.016,0.001-0.029,0.002-0.045,0.003c-0.001,0-0.003,0-0.005,0c-0.006,0-0.011,0.001-0.017,0.001c-0.002,0-0.004,0-0.006,0 c-0.004,0-0.012,0.001-0.016,0.001c-0.003,0-0.005,0-0.007,0c-0.006,0-0.012,0-0.018,0.001c-0.001,0-0.003,0-0.004,0 c-0.016,0.001-0.03,0.002-0.046,0.003c-0.001,0-0.003,0-0.004,0c-0.006,0-0.012,0.001-0.018,0.001c-0.002,0-0.004,0-0.007,0 c-0.004,0-0.013,0.001-0.017,0.001c-0.002,0-0.004,0-0.005,0c-0.006,0-0.013,0.001-0.019,0.001c-0.001,0-0.003,0-0.004,0 c-0.016,0.001-0.029,0.002-0.045,0.003c-0.001,0-0.003,0-0.005,0c-0.006,0-0.012,0.001-0.018,0.001c-0.001,0-0.003,0-0.005,0 c-0.004,0-0.013,0.001-0.017,0.001c-0.002,0-0.004,0-0.006,0c-0.008,0-0.011,0-0.019,0.001c-0.001,0-0.002,0-0.004,0 c-0.016,0.001-0.03,0.002-0.046,0.003c-0.001,0-0.001,0-0.002,0c-0.008,0-0.012,0-0.02,0.001c-0.002,0-0.004,0-0.006,0 c-0.004,0-0.012,0-0.016,0.001c-0.002,0-0.005,0-0.008,0c-0.004,0-0.01,0.001-0.015,0.001c-0.002,0-0.005,0-0.008,0.001 c-0.006,0-0.012,0.001-0.019,0.001c-0.001,0-0.003,0-0.004,0c-0.016,0.001-0.03,0.002-0.046,0.003c-0.001,0-0.003,0-0.004,0 c-0.006,0-0.012,0.001-0.018,0.001c-0.002,0-0.004,0-0.006,0c-0.004,0-0.013,0.001-0.017,0.001c-0.002,0-0.004,0-0.006,0 c-0.008,0.001-0.01,0.001-0.019,0.001c-0.001,0-0.002,0-0.003,0c-0.016,0.001-0.03,0.002-0.045,0.003c-0.002,0-0.004,0-0.005,0 c-0.006,0-0.011,0.001-0.017,0.001c-0.002,0-0.004,0-0.006,0c-0.004,0-0.013,0.001-0.017,0.001c-0.001,0-0.004,0-0.006,0 c-0.006,0-0.012,0.001-0.018,0.001c-0.001,0-0.002,0-0.004,0c-0.016,0.001-0.03,0.002-0.046,0.004c0,0-0.001,0-0.002,0 c-0.008,0.001-0.012,0.001-0.02,0.002c-0.002,0-0.003,0-0.005,0c-0.006,0-0.012,0.001-0.018,0.001c-0.001,0-0.003,0-0.005,0 c-0.008,0.001-0.011,0.001-0.019,0.002c-0.001,0-0.002,0-0.004,0c-0.016,0.001-0.031,0.002-0.046,0.004 c-0.008,0.001-0.015,0.001-0.022,0.002c-0.001,0-0.002,0-0.003,0c-0.008,0-0.011,0-0.019,0.001c-0.002,0-0.003,0-0.005,0 c-0.008,0-0.011,0.001-0.019,0.001c-0.001,0-0.002,0-0.004,0c-0.008,0-0.014,0.001-0.022,0.001 c-0.016,0.001-0.03,0.003-0.046,0.004c-0.001,0-0.003,0-0.005,0c-0.006,0-0.012,0.001-0.018,0.002c-0.002,0-0.004,0-0.005,0 c-0.006,0-0.012,0.001-0.018,0.002c-0.001,0-0.003,0-0.005,0c-0.008,0.001-0.012,0.001-0.02,0.002c-0.001,0-0.001,0-0.002,0 c-0.016,0.001-0.03,0.003-0.046,0.004c-0.001,0-0.002,0-0.003,0c-0.008,0.001-0.012,0.001-0.02,0.002c-0.001,0-0.003,0-0.005,0 c-0.004,0-0.013,0.001-0.017,0.001c-0.002,0-0.004,0-0.006,0c-0.006,0-0.012,0.001-0.018,0.001c-0.002,0-0.003,0-0.005,0 c-0.016,0.001-0.03,0.002-0.045,0.004c-0.001,0-0.002,0-0.004,0c-0.008,0-0.011,0.001-0.019,0.001c-0.001,0-0.004,0-0.005,0 c-0.004,0-0.013,0.001-0.017,0.002c-0.002,0-0.004,0-0.006,0c-0.008,0-0.011,0.001-0.019,0.001c-0.001,0-0.002,0-0.003,0 c-0.016,0.001-0.03,0.002-0.046,0.004c0,0-0.001,0-0.002,0c-0.008,0-0.012,0.001-0.02,0.001c-0.002,0-0.004,0-0.006,0.001 c-0.006,0-0.011,0.001-0.017,0.001c-0.002,0-0.003,0-0.005,0c-0.006,0-0.012,0.001-0.018,0.001c-0.001,0-0.003,0-0.004,0 c-0.016,0.001-0.03,0.003-0.046,0.004l0,0c-0.008,0-0.014,0.001-0.022,0.002c-0.001,0-0.003,0-0.005,0 c-0.006,0-0.012,0.001-0.018,0.001c-0.002,0-0.003,0-0.005,0.001c-0.006,0-0.012,0.001-0.018,0.001c-0.002,0-0.003,0-0.005,0 c-0.008,0-0.012,0.001-0.02,0.002c-0.001,0-0.002,0-0.003,0c-0.016,0.001-0.03,0.003-0.046,0.004c-0.001,0-0.001,0-0.002,0 c-0.008,0-0.013,0.001-0.021,0.002c-0.001,0-0.003,0-0.004,0c-0.006,0-0.012,0.001-0.018,0.001c-0.001,0-0.003,0-0.005,0 c-0.008,0.001-0.012,0.001-0.02,0.002c-0.001,0-0.001,0-0.002,0c-0.016,0.001-0.03,0.003-0.046,0.004c-0.001,0-0.002,0-0.003,0 c-0.008,0.001-0.011,0.001-0.019,0.002c-0.001,0-0.003,0-0.005,0c-0.006,0.001-0.012,0.001-0.019,0.002c-0.001,0-0.003,0-0.004,0 c-0.008,0-0.013,0.001-0.021,0.002c0,0-0.001,0-0.002,0c-0.016,0.002-0.031,0.003-0.046,0.005c0,0-0.001,0-0.002,0 c-0.008,0.001-0.013,0.001-0.021,0.002c-0.001,0-0.003,0-0.004,0c-0.008,0.001-0.011,0.001-0.019,0.002c-0.001,0-0.003,0-0.004,0 c-0.008,0.001-0.012,0.001-0.02,0.002c-0.001,0-0.002,0-0.003,0c-0.008,0-0.013,0.001-0.021,0.002c-0.001,0-0.002,0-0.003,0 c-0.008,0-0.015,0.001-0.023,0.002c0,0,0,0-0.001,0c-0.008,0-0.013,0.001-0.021,0.002c-0.001,0-0.003,0-0.005,0 c-0.006,0-0.012,0.001-0.018,0.002c-0.001,0-0.003,0-0.005,0c-0.008,0-0.01,0.001-0.018,0.002c-0.001,0-0.003,0-0.004,0 c-0.024,0.002-0.045,0.004-0.069,0.007c-0.001,0-0.001,0-0.002,0c-0.008,0-0.012,0.001-0.02,0.002c-0.001,0-0.002,0-0.004,0 c-0.008,0-0.012,0.001-0.021,0.002c-0.001,0-0.002,0-0.003,0c-0.008,0-0.015,0.001-0.022,0.002l0,0 c-0.016,0.001-0.031,0.003-0.047,0.005l0,0c-0.008,0.001-0.015,0.001-0.022,0.002h-0.001c-0.008,0.001-0.013,0.001-0.021,0.002 c-0.001,0-0.001,0-0.002,0c-0.008,0.001-0.015,0.002-0.022,0.002c-0.024,0.002-0.046,0.005-0.07,0.008c-0.001,0-0.002,0-0.002,0 c-0.008,0.001-0.013,0.001-0.021,0.002c0,0-0.001,0-0.002,0c-0.008,0.001-0.014,0.001-0.021,0.002h-0.001 c-0.023,0.002-0.046,0.005-0.069,0.007c-0.001,0-0.001,0-0.002,0c-0.008,0.001-0.012,0.001-0.021,0.002c-0.001,0-0.002,0-0.004,0 c-0.008,0.001-0.013,0.001-0.021,0.002h-0.001c-0.022,0.003-0.046,0.005-0.07,0.008h-0.001c-0.008,0.001-0.013,0.001-0.021,0.002 c0,0-0.001,0-0.002,0c-0.008,0.001-0.013,0.001-0.021,0.002c-0.001,0-0.002,0-0.002,0c-0.032,0.003-0.061,0.007-0.092,0.01 c-0.001,0-0.001,0-0.002,0c-0.008,0.001-0.013,0.001-0.021,0.002c-0.001,0-0.002,0-0.003,0c-0.031,0.004-0.061,0.007-0.092,0.011 h-0.001c-0.008,0.001-0.014,0.002-0.021,0.003c-0.001,0-0.001,0-0.002,0c-0.032,0.004-0.062,0.007-0.093,0.011h-0.001 c-0.008,0.001-0.015,0.002-0.022,0.003c-0.04,0.004-0.078,0.009-0.118,0.014l0,0c-0.047,0.005-0.093,0.011-0.141,0.017 c-0.031,0.004-0.062,0.008-0.094,0.012c-0.89,0.112-1.776,0.243-2.654,0.394l0.337,1.971C245.121,133.281,248.439,133,251.75,133 z"/>
        <path fill="#E1E1E1" d="M232.313,136.336l-0.67-1.884c-1.47,0.522-2.913,1.101-4.327,1.731l0,0 c-0.042,0.019-0.084,0.038-0.126,0.057h-0.001c-0.005,0.002-0.01,0.005-0.015,0.007c-0.001,0.001-0.003,0.001-0.005,0.002 c-0.004,0.002-0.009,0.004-0.014,0.006c-0.001,0-0.003,0.001-0.004,0.002c-0.005,0.002-0.01,0.004-0.015,0.006 c-0.002,0.001-0.002,0.001-0.004,0.002c-0.005,0.002-0.01,0.004-0.015,0.007l-0.003,0.001c-0.022,0.01-0.044,0.021-0.067,0.031 c-0.002,0-0.003,0.001-0.005,0.002c-0.004,0.002-0.008,0.003-0.012,0.005c-0.003,0.001-0.004,0.002-0.008,0.004 c-0.004,0.001-0.007,0.003-0.011,0.005c-0.003,0.001-0.005,0.002-0.008,0.004c-0.003,0.001-0.007,0.003-0.011,0.005 c-0.003,0.001-0.005,0.002-0.009,0.004c-0.003,0.001-0.007,0.003-0.011,0.005c-0.004,0.002-0.006,0.003-0.01,0.004 c-0.003,0.001-0.005,0.002-0.008,0.004c-0.005,0.002-0.012,0.005-0.017,0.008c-0.001,0.001-0.003,0.001-0.005,0.002 c-0.005,0.002-0.012,0.005-0.017,0.008c-0.002,0.001-0.004,0.002-0.006,0.003c-0.005,0.002-0.008,0.003-0.014,0.006 c-0.002,0.001-0.004,0.002-0.006,0.003c-0.005,0.002-0.009,0.004-0.015,0.007c-0.001,0-0.003,0.001-0.004,0.002 c-0.003,0.001-0.012,0.005-0.015,0.007c-0.002,0.001-0.003,0.001-0.005,0.002c-0.005,0.002-0.01,0.004-0.015,0.007 c-0.001,0.001-0.003,0.001-0.005,0.002c-0.007,0.003-0.01,0.004-0.017,0.008c-0.001,0-0.001,0-0.002,0.001 c-0.021,0.009-0.041,0.019-0.061,0.028c-0.001,0-0.001,0.001-0.002,0.001c-0.007,0.003-0.011,0.005-0.018,0.008 c-0.001,0-0.002,0.001-0.003,0.002c-0.007,0.003-0.01,0.004-0.017,0.007c-0.001,0-0.002,0.001-0.003,0.001 c-0.007,0.003-0.011,0.005-0.018,0.008c0,0-0.001,0.001-0.002,0.001c-1.486,0.684-2.939,1.427-4.357,2.229l0.982,1.742 C226.183,138.819,229.212,137.439,232.313,136.336z"/>
      </g>
      <path fill="#E1E1E1" d="M309.75,191c0,31.981-26.02,58-58,58c-31.981,0-58-26.019-58-58h-2c0,33.137,26.864,60,60,60 s60-26.863,60-60H309.75z"/>
    </g>
    <rect x="166.75" y="72" fill="#E1E1E1" width="5" height="2"/>
    <rect x="166.75" y="79" fill="#E1E1E1" width="5" height="2"/>
    <rect x="166.75" y="111" fill="#E1E1E1" width="5" height="2"/>
    <rect x="166.75" y="143" fill="#E1E1E1" width="5" height="2"/>
    <rect x="331.75" y="72" fill="#E1E1E1" width="5" height="2"/>
    <rect x="331.75" y="79" fill="#E1E1E1" width="5" height="2"/>
    <rect x="331.75" y="111" fill="#E1E1E1" width="5" height="2"/>
    <rect x="331.75" y="143" fill="#E1E1E1" width="5" height="2"/>
    <path fill="#E1E1E1" d="M470,2v140c-11.906,28.009-29.115,53.167-50.806,74.773c-21.714,21.629-46.996,38.609-75.149,50.471 c-29.146,12.28-60.107,18.506-92.024,18.506c-31.917,0-62.878-6.226-92.024-18.506c-28.152-11.861-53.436-28.842-75.148-50.471 C63.157,195.167,45.906,170.009,34,142V2h-2v140c36.029,85.61,120.995,145.75,220.021,145.75S435.966,227.61,471.995,142H472V2H470 z"/>
  </g>
</svg>