<?xml version="1.0" encoding="UTF-8" standalone="no"?>
<svg width="517px" height="441px" viewBox="0 0 517 441" version="1.1" xmlns="http://www.w3.org/2000/svg" xmlns:xlink="http://www.w3.org/1999/xlink">
    <!-- Generator: Sketch 3.8.3 (29802) - http://www.bohemiancoding.com/sketch -->
    <title>rp-logo</title>
    <desc>Created with Sketch.</desc>
    <defs>
        <path d="M340.2,2.93098878e-14 C422.6,2.93098878e-14 457.2,38.6 457.2,98.5 C457.2,168.6 407.2,196.6 329.5,196.6 L318.5,196.6 L318.5,288.4 L269.2,288.4 L269.2,46.8 C269.2,17.7 258.5,13.5 240.8,13.5 L240.8,1.50990331e-14 L340.2,1.50990331e-14 L340.2,2.93098878e-14 L340.2,2.93098878e-14 Z M329.5,173.8 C374,173.8 402.8,162 402.8,100.9 C402.8,49.3 385.1,22.9 338.2,22.9 L318.5,22.9 L318.5,173.4 C318.5,173.4 323.6,173.8 329.5,173.8 L329.5,173.8 L329.5,173.8 Z" id="path-1"></path>
        <mask id="mask-2" maskContentUnits="userSpaceOnUse" maskUnits="objectBoundingBox" x="-17" y="-17" width="250.4" height="322.4">
            <rect x="223.8" y="-17" width="250.4" height="322.4" fill="white"></rect>
            <use xlink:href="#path-1" fill="black"></use>
        </mask>
        <path d="M101.7,-5.68434189e-14 C181.7,-5.68434189e-14 219.5,35.9 219.5,94.2 C219.5,146.6 183.6,174.6 148.2,186.4 L194.6,252.1 C204.4,264.2 214.4,276.1 228.6,276.5 L228.6,288.4 L160.4,288.4 L99.7,193.8 L77.6,193.8 L77.6,288.4 L28.4,288.4 L28.4,46.8 C28.4,17.2 17.1,13.5 -7.81597009e-14,13.5 L-7.81597009e-14,-7.10542736e-14 L101.7,-7.10542736e-14 L101.7,-5.68434189e-14 L101.7,-5.68434189e-14 Z M101.7,170.6 C139.1,170.6 165.1,149.3 165.1,95.7 C165.1,46.8 141.5,22.8 93,22.8 L77.6,22.8 L77.6,169.4 C77.7,169.5 86.4,170.6 101.7,170.6 L101.7,170.6 L101.7,170.6 Z" id="path-3"></path>
        <mask id="mask-4" maskContentUnits="userSpaceOnUse" maskUnits="objectBoundingBox" x="-17" y="-17" width="262.6" height="322.4">
            <rect x="-17" y="-17" width="262.6" height="322.4" fill="white"></rect>
            <use xlink:href="#path-3" fill="black"></use>
        </mask>
    </defs>
    <g id="Page-1" stroke="none" stroke-width="1" fill="none" fill-rule="evenodd">
        <g id="rp-logo" transform="translate(17.000000, 17.000000)">
            <polygon id="XMLID_8_" fill="#FFC100" points="423.1 288.5 500 288.5 500 365.4 423.1 365.4 423.1 423.1 0 423.1 0 346.2 423.1 346.2"></polygon>
            <g id="p">
                <use fill="#1D1D1B" fill-rule="evenodd" xlink:href="#path-1"></use>
                <use stroke="#FFFFFF" mask="url(#mask-2)" stroke-width="34" xlink:href="#path-1"></use>
            </g>
            <g id="r">
                <use fill="#1D1D1B" fill-rule="evenodd" xlink:href="#path-3"></use>
                <use stroke="#FFFFFF" mask="url(#mask-4)" stroke-width="34" xlink:href="#path-3"></use>
            </g>
        </g>
    </g>
</svg>